<svg xmlns="http://www.w3.org/2000/svg" viewBox="0 0 128 128">
  <rect x="8" y="8" width="112" height="112" rx="24" fill="#20252b"/>
  <ellipse cx="58" cy="42" rx="27" ry="11" fill="#ffffff"/>
  <path d="M31 43v18c0 6 12 11 27 11s27-5 27-11V43c-5 7-16 11-27 11s-22-4-27-11Z" fill="#ffffff"/>
  <path d="M31 63v18c0 6 12 11 27 11 8 0 15-1 20-4a22 22 0 0 1-1-7c0-5 2-10 5-14-6 4-14 6-24 6-11 0-22-4-27-10Z" fill="#ffffff"/>
  <circle cx="91" cy="82" r="20" fill="#0b8793"/>
  <path d="M91 70v24M79 82h24" stroke="#ffffff" stroke-width="7" stroke-linecap="round"/>
</svg>
